# xmcd
#
# Track frame offsets:
#	150
#	19072
#	36365
#	49691
#	66549
#	81564
#	97501
#	114032
#	131058
#	147890
#	161676
#	178507
#	196246
#
# Disc length: 2786 seconds
#
# Revision: 0
# Processed by: cddbd v1.5.2PL0 Copyright (c) Steve Scherf et al.
# Submitted via: EasyCDDAExtractor 16.1.0.1
#
DISCID=ac0ae00d
DTITLE=Lucia Comnes - Love, Hope and Tyranny
DYEAR=2015
DGENRE=Country
TTITLE0=No Hiding Place
TTITLE1=Burning Eden
TTITLE2=Lie With You Tonight
TTITLE3=Through The Dark
TTITLE4=Give In To Grace
TTITLE5=There Must Be A Reason
TTITLE6=If You Knew How Much I Love You
TTITLE7=How The Moon Made Me
TTITLE8=End Of The Line
TTITLE9=The Day Love Dies
TTITLE10=Look Again
TTITLE11=Because They Never Do
TTITLE12=Will You Miss Me When I'm Gone
EXTD=
EXTT0=
EXTT1=
EXTT2=
EXTT3=
EXTT4=
EXTT5=
EXTT6=
EXTT7=
EXTT8=
EXTT9=
EXTT10=
EXTT11=
EXTT12=
PLAYORDER=
